<svg width="582" height="100" viewBox="0 0 582 100" fill="none" xmlns="http://www.w3.org/2000/svg">
<g clip-path="url(#clip0_354_3650)">
<path d="M100 0H0V100H100V0Z" fill="#004AAD"/>
<path d="M45.0198 58.8242V50.4242H59.7198C61.7358 50.4242 63.4998 50.0322 65.0118 49.2482C66.5798 48.4082 67.8118 47.2602 68.7078 45.8042C69.6038 44.2922 70.0518 42.5282 70.0518 40.5122C70.0518 38.4962 69.6038 36.7602 68.7078 35.3042C67.8118 33.7922 66.5798 32.6442 65.0118 31.8602C63.4998 31.0202 61.7358 30.6002 59.7198 30.6002H45.0198V22.2002H60.2238C63.9198 22.2002 67.2238 22.9562 70.1358 24.4682C73.1038 25.9802 75.4278 28.1082 77.1078 30.8522C78.8438 33.5962 79.7118 36.8162 79.7118 40.5122C79.7118 44.2082 78.8438 47.4282 77.1078 50.1722C75.4278 52.9162 73.1038 55.0442 70.1358 56.5562C67.2238 58.0682 63.9198 58.8242 60.2238 58.8242H45.0198ZM38.3838 81.0002V22.2002H48.0438V81.0002H38.3838Z" fill="white"/>
<path d="M202 0H102V100H202V0Z" fill="#004AAD"/>
<path d="M159.096 81.8399C154.84 81.8399 150.892 81.0839 147.252 79.5719C143.668 78.0039 140.532 75.8479 137.844 73.1039C135.156 70.3039 133.084 67.0839 131.628 63.4439C130.172 59.7479 129.444 55.7999 129.444 51.5999C129.444 47.3999 130.172 43.4799 131.628 39.8399C133.084 36.1439 135.156 32.9239 137.844 30.1799C140.532 27.4359 143.668 25.2799 147.252 23.7119C150.892 22.1439 154.84 21.3599 159.096 21.3599C163.856 21.3599 167.972 22.1439 171.444 23.7119C174.916 25.2799 177.996 27.4079 180.684 30.0959L174.132 36.6479C172.396 34.7439 170.268 33.2599 167.748 32.1959C165.284 31.1319 162.4 30.5999 159.096 30.5999C156.184 30.5999 153.524 31.1039 151.116 32.1119C148.708 33.1199 146.608 34.5759 144.816 36.4799C143.08 38.3279 141.736 40.5399 140.784 43.1159C139.832 45.6919 139.356 48.5199 139.356 51.5999C139.356 54.6799 139.832 57.5079 140.784 60.0839C141.736 62.6599 143.08 64.8999 144.816 66.8039C146.608 68.6519 148.708 70.0799 151.116 71.0879C153.524 72.0959 156.184 72.5999 159.096 72.5999C162.68 72.5999 165.704 72.0679 168.168 71.0039C170.688 69.8839 172.816 68.3719 174.552 66.4679L181.104 73.0199C178.416 75.7639 175.252 77.9199 171.612 79.4879C167.972 81.0559 163.8 81.8399 159.096 81.8399Z" fill="white"/>
<mask id="mask0_354_3650" style="mask-type:luminance" maskUnits="userSpaceOnUse" x="204" y="0" width="100" height="100">
<path d="M304 0H204V100H304V0Z" fill="white"/>
</mask>
<g mask="url(#mask0_354_3650)">
<path d="M304 0H204V100H304V0Z" fill="#004AAD"/>
<path d="M234.384 81.0002V22.2002H244.044V81.0002H234.384ZM241.02 81.0002V72.1802H271.764V81.0002H241.02Z" fill="white"/>
</g>
<g filter="url(#filter0_d_354_3650)">
<path d="M582 0H304V100H582V0Z" fill="white"/>
</g>
<path d="M341.083 80V22.6H347.643L371.505 61.878H367.241L391.103 22.6H397.663V80H388.233V39.164L390.365 39.738L372.653 68.848H366.093L348.381 39.738L350.513 39.164V80H341.083ZM405.846 80L429.462 22.6H436.022L459.474 80H449.306L430.938 33.506H434.382L415.85 80H405.846ZM417.49 68.93V60.73H447.912V68.93H417.49ZM473.523 55.646V47.856H488.037C490.935 47.856 493.176 47.118 494.761 45.642C496.401 44.1113 497.221 42.0067 497.221 39.328C497.221 36.9227 496.429 34.9 494.843 33.26C493.258 31.62 491.017 30.8 488.119 30.8H473.523V22.6H488.529C492.137 22.6 495.308 23.338 498.041 24.814C500.775 26.2353 502.879 28.2033 504.355 30.718C505.886 33.178 506.651 35.9933 506.651 39.164C506.651 42.4987 505.886 45.396 504.355 47.856C502.879 50.316 500.775 52.2293 498.041 53.596C495.308 54.9627 492.137 55.646 488.529 55.646H473.523ZM467.045 80V22.6H476.475V80H467.045ZM498.533 80L478.443 55.072L487.217 51.874L510.423 80H498.533ZM529.044 80V24.24H538.474V80H529.044ZM510.348 31.21V22.6H557.17V31.21H510.348Z" fill="url(#paint0_linear_354_3650)"/>
</g>
<defs>
<filter id="filter0_d_354_3650" x="300" y="0" width="286" height="108" filterUnits="userSpaceOnUse" color-interpolation-filters="sRGB">
<feFlood flood-opacity="0" result="BackgroundImageFix"/>
<feColorMatrix in="SourceAlpha" type="matrix" values="0 0 0 0 0 0 0 0 0 0 0 0 0 0 0 0 0 0 127 0" result="hardAlpha"/>
<feOffset dy="4"/>
<feGaussianBlur stdDeviation="2"/>
<feComposite in2="hardAlpha" operator="out"/>
<feColorMatrix type="matrix" values="0 0 0 0 0 0 0 0 0 0 0 0 0 0 0 0 0 0 0.25 0"/>
<feBlend mode="normal" in2="BackgroundImageFix" result="effect1_dropShadow_354_3650"/>
<feBlend mode="normal" in="SourceGraphic" in2="effect1_dropShadow_354_3650" result="shape"/>
</filter>
<linearGradient id="paint0_linear_354_3650" x1="326" y1="50" x2="568" y2="50" gradientUnits="userSpaceOnUse">
<stop offset="0.075" stop-color="#004AAD"/>
<stop offset="0.565" stop-color="#9234EA"/>
</linearGradient>
<clipPath id="clip0_354_3650">
<rect width="582" height="100" fill="white"/>
</clipPath>
</defs>
</svg>
